<svg style="position: absolute; width: 0; height: 0; overflow: hidden;" version="1.1" xmlns="http://www.w3.org/2000/svg"
     xmlns:xlink="http://www.w3.org/1999/xlink">

  <defs>
    <symbol id="menu" viewBox="0 0 45 43">
      <title>Меню (бургер)</title>
      <path
          d="M43.55,0H1.45A1.45,1.45,0,0,0,0,1.44V7.86A1.45,1.45,0,0,0,1.45,9.31H43.55A1.45,1.45,0,0,0,45,7.86V1.44A1.45,1.45,0,0,0,43.55,0Z
          m0,16.85H1.45A1.45,1.45,0,0,0,0,18.29v6.42a1.45,1.45,0,0,0,1.45,1.44H43.55A1.45,1.45,0,0,0,45,24.71V18.29A1.45,1.45,0,0,0,43.55,16.85Z
          m0,16.85H1.45A1.45,1.45,0,0,0,0,35.14v6.42A1.45,1.45,0,0,0,1.45,43H43.55A1.45,1.45,0,0,0,45,41.56V35.14A1.45,1.45,0,0,0,43.55,33.69Z"/>
    </symbol>
  </defs>

</svg>